<mxfile host="app.diagrams.net" modified="2023-11-24T21:34:02.535Z" agent="Mozilla/5.0 (Windows NT 10.0; Win64; x64) AppleWebKit/537.36 (KHTML, like Gecko) Chrome/119.0.0.0 Safari/537.36" etag="ClWkWIDwVGLnVchprJuN" version="22.1.3" type="google">
  <diagram name="Page-1" id="e7e014a7-5840-1c2e-5031-d8a46d1fe8dd">
    <mxGraphModel grid="1" page="1" gridSize="10" guides="1" tooltips="1" connect="1" arrows="1" fold="1" pageScale="1" pageWidth="1169" pageHeight="826" background="none" math="0" shadow="0">
      <root>
        <mxCell id="0" />
        <mxCell id="1" parent="0" />
        <mxCell id="AI0DfgR88YhLpMmkbT6Z-55" value="" style="ellipse;shape=startState;fillColor=#000000;strokeColor=#ff0000;" vertex="1" parent="1">
          <mxGeometry x="549.1700000000001" y="-810" width="30" height="30" as="geometry" />
        </mxCell>
        <mxCell id="AI0DfgR88YhLpMmkbT6Z-56" value="" style="edgeStyle=elbowEdgeStyle;elbow=horizontal;verticalAlign=bottom;endArrow=open;endSize=8;strokeColor=#FF0000;endFill=1;rounded=0;exitX=0.5;exitY=1;exitDx=0;exitDy=0;" edge="1" parent="1" source="AI0DfgR88YhLpMmkbT6Z-55">
          <mxGeometry x="40" y="20" as="geometry">
            <mxPoint x="564.1094117647059" y="-710" as="targetPoint" />
            <mxPoint x="564.0491358024692" y="-750.0073380749501" as="sourcePoint" />
          </mxGeometry>
        </mxCell>
        <mxCell id="AI0DfgR88YhLpMmkbT6Z-76" value="" style="ellipse;shape=endState;fillColor=#000000;strokeColor=#ff0000" vertex="1" parent="1">
          <mxGeometry x="549.72" y="180" width="30" height="30" as="geometry" />
        </mxCell>
        <mxCell id="AI0DfgR88YhLpMmkbT6Z-80" value="" style="rhombus;whiteSpace=wrap;html=1;" vertex="1" parent="1">
          <mxGeometry x="544.1700000000001" y="-710" width="40" height="40" as="geometry" />
        </mxCell>
        <mxCell id="AI0DfgR88YhLpMmkbT6Z-107" value="" style="edgeStyle=elbowEdgeStyle;elbow=horizontal;verticalAlign=bottom;endArrow=open;endSize=8;strokeColor=#FF0000;endFill=1;rounded=0;exitX=0;exitY=0.5;exitDx=0;exitDy=0;entryX=1;entryY=0.5;entryDx=0;entryDy=0;" edge="1" parent="1" source="AI0DfgR88YhLpMmkbT6Z-80" target="AI0DfgR88YhLpMmkbT6Z-168">
          <mxGeometry x="40" y="20" as="geometry">
            <mxPoint x="301.71000000000004" y="-690" as="targetPoint" />
            <mxPoint x="446.71000000000004" y="-660" as="sourcePoint" />
          </mxGeometry>
        </mxCell>
        <mxCell id="AI0DfgR88YhLpMmkbT6Z-119" value="[Manage Existing Booking]" style="text;html=1;strokeColor=none;fillColor=none;align=center;verticalAlign=middle;whiteSpace=wrap;rounded=0;rotation=0;" vertex="1" parent="1">
          <mxGeometry x="203.71" y="-650.06" width="62" height="30" as="geometry" />
        </mxCell>
        <mxCell id="AI0DfgR88YhLpMmkbT6Z-168" value="" style="rhombus;whiteSpace=wrap;html=1;" vertex="1" parent="1">
          <mxGeometry x="251.71" y="-710" width="40" height="40" as="geometry" />
        </mxCell>
        <mxCell id="AI0DfgR88YhLpMmkbT6Z-172" value="[Looking for Flights]" style="text;html=1;strokeColor=none;fillColor=none;align=center;verticalAlign=middle;whiteSpace=wrap;rounded=0;rotation=0;" vertex="1" parent="1">
          <mxGeometry x="98.71000000000001" y="-715.74" width="110" height="20" as="geometry" />
        </mxCell>
        <mxCell id="AI0DfgR88YhLpMmkbT6Z-173" value="[No Login]" style="text;html=1;strokeColor=none;fillColor=none;align=center;verticalAlign=middle;whiteSpace=wrap;rounded=0;" vertex="1" parent="1">
          <mxGeometry x="410.00000000000006" y="-715.74" width="90" height="20" as="geometry" />
        </mxCell>
        <mxCell id="AI0DfgR88YhLpMmkbT6Z-178" value="" style="edgeStyle=elbowEdgeStyle;elbow=horizontal;verticalAlign=bottom;endArrow=open;endSize=8;strokeColor=#FF0000;endFill=1;rounded=0;exitX=0;exitY=0.5;exitDx=0;exitDy=0;entryX=0.529;entryY=-0.004;entryDx=0;entryDy=0;entryPerimeter=0;" edge="1" parent="1" source="AI0DfgR88YhLpMmkbT6Z-168" target="AI0DfgR88YhLpMmkbT6Z-179">
          <mxGeometry x="40" y="20" as="geometry">
            <mxPoint x="103.71000000000001" y="-650" as="targetPoint" />
            <mxPoint x="206.71" y="-690.32" as="sourcePoint" />
            <Array as="points">
              <mxPoint x="85.71000000000001" y="-680" />
            </Array>
          </mxGeometry>
        </mxCell>
        <mxCell id="AI0DfgR88YhLpMmkbT6Z-179" value="Search / Browse Flight" style="rounded=1;whiteSpace=wrap;html=1;" vertex="1" parent="1">
          <mxGeometry x="38.71000000000001" y="-650.06" width="89.73" height="35" as="geometry" />
        </mxCell>
        <mxCell id="S2El4AXlV4LIr7-H3Zzx-1" value="" style="endArrow=open;html=1;rounded=0;exitX=0.5;exitY=1;exitDx=0;exitDy=0;entryX=0.5;entryY=0;entryDx=0;entryDy=0;verticalAlign=bottom;strokeColor=#FF0000;endSize=8;endFill=1;" edge="1" parent="1" source="AI0DfgR88YhLpMmkbT6Z-179" target="S2El4AXlV4LIr7-H3Zzx-6">
          <mxGeometry width="50" height="50" relative="1" as="geometry">
            <mxPoint x="378.71000000000004" y="-410" as="sourcePoint" />
            <mxPoint x="83.71000000000001" y="-480" as="targetPoint" />
          </mxGeometry>
        </mxCell>
        <mxCell id="S2El4AXlV4LIr7-H3Zzx-6" value="Select Flight" style="rounded=1;whiteSpace=wrap;html=1;" vertex="1" parent="1">
          <mxGeometry x="38.72" y="-550.1299999999999" width="89.73" height="35" as="geometry" />
        </mxCell>
        <mxCell id="S2El4AXlV4LIr7-H3Zzx-8" value="" style="shape=line;html=1;strokeWidth=6;strokeColor=#ff0000;" vertex="1" parent="1">
          <mxGeometry x="23.590000000000003" y="-462.63" width="120" height="10" as="geometry" />
        </mxCell>
        <mxCell id="S2El4AXlV4LIr7-H3Zzx-10" value="" style="endArrow=open;html=1;rounded=0;exitX=0.5;exitY=1;exitDx=0;exitDy=0;entryX=0.5;entryY=0;entryDx=0;entryDy=0;verticalAlign=bottom;strokeColor=#FF0000;endSize=8;endFill=1;" edge="1" parent="1">
          <mxGeometry width="50" height="50" relative="1" as="geometry">
            <mxPoint x="83.29000000000005" y="-515.13" as="sourcePoint" />
            <mxPoint x="83.29000000000005" y="-462.13" as="targetPoint" />
          </mxGeometry>
        </mxCell>
        <mxCell id="S2El4AXlV4LIr7-H3Zzx-12" value="" style="endArrow=open;html=1;rounded=0;exitX=0.5;exitY=1;exitDx=0;exitDy=0;entryX=0.5;entryY=0;entryDx=0;entryDy=0;verticalAlign=bottom;strokeColor=#FF0000;endSize=8;endFill=1;" edge="1" parent="1">
          <mxGeometry width="50" height="50" relative="1" as="geometry">
            <mxPoint x="48.71000000000001" y="-452.63" as="sourcePoint" />
            <mxPoint x="48.71000000000001" y="-392.63" as="targetPoint" />
          </mxGeometry>
        </mxCell>
        <mxCell id="S2El4AXlV4LIr7-H3Zzx-13" value="" style="endArrow=open;html=1;rounded=0;exitX=0.5;exitY=1;exitDx=0;exitDy=0;entryX=0.5;entryY=0;entryDx=0;entryDy=0;verticalAlign=bottom;strokeColor=#FF0000;endSize=8;endFill=1;" edge="1" parent="1" target="S2El4AXlV4LIr7-H3Zzx-15">
          <mxGeometry width="50" height="50" relative="1" as="geometry">
            <mxPoint x="118.71000000000001" y="-452.63" as="sourcePoint" />
            <mxPoint x="118.71000000000001" y="-399.63" as="targetPoint" />
          </mxGeometry>
        </mxCell>
        <mxCell id="S2El4AXlV4LIr7-H3Zzx-23" value="" style="edgeStyle=orthogonalEdgeStyle;rounded=0;orthogonalLoop=1;jettySize=auto;html=1;endArrow=open;verticalAlign=bottom;strokeColor=#FF0000;endSize=8;endFill=1;" edge="1" parent="1" source="S2El4AXlV4LIr7-H3Zzx-15" target="S2El4AXlV4LIr7-H3Zzx-18">
          <mxGeometry relative="1" as="geometry" />
        </mxCell>
        <mxCell id="S2El4AXlV4LIr7-H3Zzx-15" value="" style="rhombus;whiteSpace=wrap;html=1;" vertex="1" parent="1">
          <mxGeometry x="98.71000000000001" y="-392.63" width="40" height="40" as="geometry" />
        </mxCell>
        <mxCell id="S2El4AXlV4LIr7-H3Zzx-17" value="Select Available Seat(s)" style="rounded=1;whiteSpace=wrap;html=1;" vertex="1" parent="1">
          <mxGeometry x="20.000000000000014" y="-392.63" width="57.43" height="62.63" as="geometry" />
        </mxCell>
        <mxCell id="S2El4AXlV4LIr7-H3Zzx-18" value="Select Insurance" style="rounded=1;whiteSpace=wrap;html=1;" vertex="1" parent="1">
          <mxGeometry x="85.00000000000003" y="-302.63" width="67.43" height="35" as="geometry" />
        </mxCell>
        <mxCell id="S2El4AXlV4LIr7-H3Zzx-19" value="" style="shape=line;html=1;strokeWidth=6;strokeColor=#ff0000;" vertex="1" parent="1">
          <mxGeometry x="23.57000000000002" y="-232.63" width="195.14" height="10" as="geometry" />
        </mxCell>
        <mxCell id="S2El4AXlV4LIr7-H3Zzx-20" value="" style="endArrow=open;html=1;rounded=0;verticalAlign=bottom;strokeColor=#FF0000;endSize=8;endFill=1;" edge="1" parent="1">
          <mxGeometry width="50" height="50" relative="1" as="geometry">
            <mxPoint x="138.71" y="-372.63" as="sourcePoint" />
            <mxPoint x="185.71" y="-232.63" as="targetPoint" />
            <Array as="points">
              <mxPoint x="185.71" y="-372.63" />
            </Array>
          </mxGeometry>
        </mxCell>
        <mxCell id="S2El4AXlV4LIr7-H3Zzx-24" value="" style="endArrow=open;html=1;rounded=0;exitX=0.5;exitY=1;exitDx=0;exitDy=0;verticalAlign=bottom;strokeColor=#FF0000;endSize=8;endFill=1;" edge="1" parent="1">
          <mxGeometry width="50" height="50" relative="1" as="geometry">
            <mxPoint x="118.59" y="-267.63" as="sourcePoint" />
            <mxPoint x="118.71000000000001" y="-232.63" as="targetPoint" />
          </mxGeometry>
        </mxCell>
        <mxCell id="S2El4AXlV4LIr7-H3Zzx-25" value="" style="endArrow=open;html=1;rounded=0;exitX=0.5;exitY=1;exitDx=0;exitDy=0;verticalAlign=bottom;strokeColor=#FF0000;endSize=8;endFill=1;" edge="1" parent="1" source="S2El4AXlV4LIr7-H3Zzx-17">
          <mxGeometry width="50" height="50" relative="1" as="geometry">
            <mxPoint x="48.59" y="-267.63" as="sourcePoint" />
            <mxPoint x="48.71000000000001" y="-232.63" as="targetPoint" />
          </mxGeometry>
        </mxCell>
        <mxCell id="S2El4AXlV4LIr7-H3Zzx-26" value="" style="endArrow=open;html=1;rounded=0;exitX=0.5;exitY=1;exitDx=0;exitDy=0;entryX=0.5;entryY=0;entryDx=0;entryDy=0;verticalAlign=bottom;strokeColor=#FF0000;endSize=8;endFill=1;" edge="1" parent="1">
          <mxGeometry width="50" height="50" relative="1" as="geometry">
            <mxPoint x="83.14000000000001" y="-222.63" as="sourcePoint" />
            <mxPoint x="83.14000000000001" y="-169.63" as="targetPoint" />
          </mxGeometry>
        </mxCell>
        <mxCell id="S2El4AXlV4LIr7-H3Zzx-28" value="[No Insurance]" style="text;html=1;strokeColor=none;fillColor=none;align=center;verticalAlign=middle;whiteSpace=wrap;rounded=0;rotation=-90;" vertex="1" parent="1">
          <mxGeometry x="152.43000000000004" y="-322.63" width="86.28" height="20" as="geometry" />
        </mxCell>
        <mxCell id="S2El4AXlV4LIr7-H3Zzx-32" value="Enter Payment Details" style="rounded=1;whiteSpace=wrap;html=1;" vertex="1" parent="1">
          <mxGeometry x="38.72000000000003" y="-170" width="93.85" height="35" as="geometry" />
        </mxCell>
        <mxCell id="S2El4AXlV4LIr7-H3Zzx-33" value="" style="endArrow=classic;html=1;rounded=0;exitX=0.5;exitY=1;exitDx=0;exitDy=0;entryX=0.5;entryY=0;entryDx=0;entryDy=0;" edge="1" parent="1" source="S2El4AXlV4LIr7-H3Zzx-34">
          <mxGeometry width="50" height="50" relative="1" as="geometry">
            <mxPoint x="83.16000000000003" y="-135" as="sourcePoint" />
            <mxPoint x="83.16000000000003" y="-82" as="targetPoint" />
          </mxGeometry>
        </mxCell>
        <mxCell id="S2El4AXlV4LIr7-H3Zzx-35" value="" style="endArrow=open;html=1;rounded=0;exitX=0.5;exitY=1;exitDx=0;exitDy=0;entryX=0.5;entryY=0;entryDx=0;entryDy=0;verticalAlign=bottom;strokeColor=#FF0000;endSize=8;endFill=1;" edge="1" parent="1" target="S2El4AXlV4LIr7-H3Zzx-34">
          <mxGeometry width="50" height="50" relative="1" as="geometry">
            <mxPoint x="83.16000000000003" y="-135" as="sourcePoint" />
            <mxPoint x="83.16000000000003" y="-82" as="targetPoint" />
          </mxGeometry>
        </mxCell>
        <mxCell id="S2El4AXlV4LIr7-H3Zzx-34" value="Make Payment" style="rounded=1;whiteSpace=wrap;html=1;" vertex="1" parent="1">
          <mxGeometry x="49.86000000000004" y="-100" width="67.43" height="35" as="geometry" />
        </mxCell>
        <mxCell id="S2El4AXlV4LIr7-H3Zzx-40" value="" style="endArrow=open;html=1;rounded=0;exitX=0.5;exitY=1;exitDx=0;exitDy=0;entryX=0.5;entryY=0;entryDx=0;entryDy=0;verticalAlign=bottom;strokeColor=#FF0000;endSize=8;endFill=1;" edge="1" parent="1">
          <mxGeometry width="50" height="50" relative="1" as="geometry">
            <mxPoint x="83.34000000000003" y="-65" as="sourcePoint" />
            <mxPoint x="83.75" y="-20" as="targetPoint" />
          </mxGeometry>
        </mxCell>
        <mxCell id="S2El4AXlV4LIr7-H3Zzx-41" value="Process Payment by Bank" style="rounded=1;whiteSpace=wrap;html=1;" vertex="1" parent="1">
          <mxGeometry x="49.870000000000005" y="-19" width="67.43" height="54" as="geometry" />
        </mxCell>
        <mxCell id="S2El4AXlV4LIr7-H3Zzx-43" value="[Yes]" style="text;html=1;strokeColor=none;fillColor=none;align=center;verticalAlign=middle;whiteSpace=wrap;rounded=0;" vertex="1" parent="1">
          <mxGeometry x="122.30000000000004" y="-340" width="25.13" height="20" as="geometry" />
        </mxCell>
        <mxCell id="S2El4AXlV4LIr7-H3Zzx-44" value="" style="rhombus;whiteSpace=wrap;html=1;" vertex="1" parent="1">
          <mxGeometry x="63.59" y="76" width="40" height="40" as="geometry" />
        </mxCell>
        <mxCell id="S2El4AXlV4LIr7-H3Zzx-45" value="" style="endArrow=open;html=1;rounded=0;entryX=0.501;entryY=-0.017;entryDx=0;entryDy=0;entryPerimeter=0;exitX=0.5;exitY=1;exitDx=0;exitDy=0;verticalAlign=bottom;strokeColor=#FF0000;endSize=8;endFill=1;" edge="1" parent="1" source="S2El4AXlV4LIr7-H3Zzx-41" target="S2El4AXlV4LIr7-H3Zzx-44">
          <mxGeometry width="50" height="50" relative="1" as="geometry">
            <mxPoint x="83.71000000000001" y="46" as="sourcePoint" />
            <mxPoint x="83.78" y="72" as="targetPoint" />
          </mxGeometry>
        </mxCell>
        <mxCell id="S2El4AXlV4LIr7-H3Zzx-46" value="" style="endArrow=open;html=1;rounded=0;exitX=1;exitY=0.5;exitDx=0;exitDy=0;entryX=1;entryY=0.25;entryDx=0;entryDy=0;verticalAlign=bottom;strokeColor=#FF0000;endSize=8;endFill=1;" edge="1" parent="1" source="S2El4AXlV4LIr7-H3Zzx-44" target="S2El4AXlV4LIr7-H3Zzx-32">
          <mxGeometry width="50" height="50" relative="1" as="geometry">
            <mxPoint x="103.59" y="170" as="sourcePoint" />
            <mxPoint x="132.59" y="30" as="targetPoint" />
            <Array as="points">
              <mxPoint x="200" y="96" />
              <mxPoint x="198.71" y="-161" />
            </Array>
          </mxGeometry>
        </mxCell>
        <mxCell id="S2El4AXlV4LIr7-H3Zzx-47" value="[Not Approved by Bank]" style="text;html=1;strokeColor=none;fillColor=none;align=center;verticalAlign=middle;whiteSpace=wrap;rounded=0;rotation=-90;" vertex="1" parent="1">
          <mxGeometry x="138.71" y="-19" width="150" height="20" as="geometry" />
        </mxCell>
        <mxCell id="S2El4AXlV4LIr7-H3Zzx-49" value="" style="endArrow=open;html=1;rounded=0;exitX=0.5;exitY=1;exitDx=0;exitDy=0;entryX=0.501;entryY=-0.017;entryDx=0;entryDy=0;entryPerimeter=0;verticalAlign=bottom;strokeColor=#FF0000;endSize=8;endFill=1;" edge="1" parent="1">
          <mxGeometry width="50" height="50" relative="1" as="geometry">
            <mxPoint x="83.40000000000003" y="116" as="sourcePoint" />
            <mxPoint x="83.74000000000001" y="164" as="targetPoint" />
          </mxGeometry>
        </mxCell>
        <mxCell id="S2El4AXlV4LIr7-H3Zzx-50" value="[Approved]" style="text;html=1;strokeColor=none;fillColor=none;align=center;verticalAlign=middle;whiteSpace=wrap;rounded=0;rotation=0;" vertex="1" parent="1">
          <mxGeometry x="85.42999999999999" y="126" width="71.42" height="20" as="geometry" />
        </mxCell>
        <mxCell id="S2El4AXlV4LIr7-H3Zzx-52" value="Send Ticket and Reciept via Email" style="rounded=1;whiteSpace=wrap;html=1;" vertex="1" parent="1">
          <mxGeometry x="44.29000000000002" y="165" width="78.6" height="60" as="geometry" />
        </mxCell>
        <mxCell id="S2El4AXlV4LIr7-H3Zzx-55" value="" style="endArrow=open;html=1;rounded=0;exitX=1;exitY=0.5;exitDx=0;exitDy=0;entryX=0;entryY=0.5;entryDx=0;entryDy=0;verticalAlign=bottom;strokeColor=#FF0000;endSize=8;endFill=1;" edge="1" parent="1" source="S2El4AXlV4LIr7-H3Zzx-52" target="AI0DfgR88YhLpMmkbT6Z-76">
          <mxGeometry width="50" height="50" relative="1" as="geometry">
            <mxPoint x="243.71" y="256" as="sourcePoint" />
            <mxPoint x="244.05000000000004" y="304" as="targetPoint" />
          </mxGeometry>
        </mxCell>
        <mxCell id="S2El4AXlV4LIr7-H3Zzx-61" value="" style="edgeStyle=elbowEdgeStyle;elbow=horizontal;verticalAlign=bottom;endArrow=open;endSize=8;strokeColor=#FF0000;endFill=1;rounded=0;exitX=0.5;exitY=1;exitDx=0;exitDy=0;" edge="1" parent="1" source="AI0DfgR88YhLpMmkbT6Z-168" target="S2El4AXlV4LIr7-H3Zzx-60">
          <mxGeometry x="40" y="20" as="geometry">
            <mxPoint x="273.71000000000004" y="-390" as="targetPoint" />
            <mxPoint x="271.71000000000004" y="-670" as="sourcePoint" />
            <Array as="points" />
          </mxGeometry>
        </mxCell>
        <mxCell id="S2El4AXlV4LIr7-H3Zzx-60" value="Search by Booking ID" style="rounded=1;whiteSpace=wrap;html=1;" vertex="1" parent="1">
          <mxGeometry x="237.98999999999998" y="-586.8199999999999" width="67.43" height="46.63" as="geometry" />
        </mxCell>
        <mxCell id="S2El4AXlV4LIr7-H3Zzx-63" value="" style="endArrow=open;html=1;rounded=0;labelBackgroundColor=default;strokeColor=#FF0000;align=center;verticalAlign=bottom;fontFamily=Helvetica;fontSize=11;fontColor=default;endSize=8;shape=connector;elbow=horizontal;endFill=1;" edge="1" parent="1">
          <mxGeometry width="50" height="50" relative="1" as="geometry">
            <mxPoint x="271.57" y="-540.07" as="sourcePoint" />
            <mxPoint x="271.57" y="-500.07" as="targetPoint" />
          </mxGeometry>
        </mxCell>
        <mxCell id="S2El4AXlV4LIr7-H3Zzx-65" value="Cancel Booking" style="rounded=1;whiteSpace=wrap;html=1;" vertex="1" parent="1">
          <mxGeometry x="238.70999999999998" y="-499.25999999999993" width="67.43" height="46.63" as="geometry" />
        </mxCell>
        <mxCell id="S2El4AXlV4LIr7-H3Zzx-66" value="" style="endArrow=open;html=1;rounded=0;exitX=0.5;exitY=1;exitDx=0;exitDy=0;verticalAlign=bottom;strokeColor=#FF0000;endSize=8;endFill=1;entryX=0.093;entryY=0.162;entryDx=0;entryDy=0;entryPerimeter=0;" edge="1" parent="1" source="S2El4AXlV4LIr7-H3Zzx-69" target="AI0DfgR88YhLpMmkbT6Z-76">
          <mxGeometry width="50" height="50" relative="1" as="geometry">
            <mxPoint x="272.07000000000005" y="-452.63" as="sourcePoint" />
            <mxPoint x="270" y="220" as="targetPoint" />
            <Array as="points">
              <mxPoint x="270" y="160" />
              <mxPoint x="530" y="160" />
            </Array>
          </mxGeometry>
        </mxCell>
        <mxCell id="S2El4AXlV4LIr7-H3Zzx-68" value="Process Refund by Bank" style="rounded=1;whiteSpace=wrap;html=1;" vertex="1" parent="1">
          <mxGeometry x="237.99" y="-406.63" width="67.43" height="54" as="geometry" />
        </mxCell>
        <mxCell id="S2El4AXlV4LIr7-H3Zzx-70" value="" style="endArrow=open;html=1;rounded=0;exitX=0.5;exitY=1;exitDx=0;exitDy=0;verticalAlign=bottom;strokeColor=#FF0000;endSize=8;endFill=1;entryX=0.5;entryY=0;entryDx=0;entryDy=0;" edge="1" parent="1" source="S2El4AXlV4LIr7-H3Zzx-68" target="S2El4AXlV4LIr7-H3Zzx-69">
          <mxGeometry width="50" height="50" relative="1" as="geometry">
            <mxPoint x="272" y="-353" as="sourcePoint" />
            <mxPoint x="407" y="267" as="targetPoint" />
            <Array as="points" />
          </mxGeometry>
        </mxCell>
        <mxCell id="S2El4AXlV4LIr7-H3Zzx-69" value="" style="rhombus;whiteSpace=wrap;html=1;" vertex="1" parent="1">
          <mxGeometry x="252.43" y="-290" width="40" height="40" as="geometry" />
        </mxCell>
        <mxCell id="S2El4AXlV4LIr7-H3Zzx-71" value="" style="endArrow=open;html=1;rounded=0;exitX=1;exitY=0.5;exitDx=0;exitDy=0;entryX=1;entryY=0.5;entryDx=0;entryDy=0;verticalAlign=bottom;strokeColor=#FF0000;endSize=8;endFill=1;" edge="1" parent="1" source="S2El4AXlV4LIr7-H3Zzx-69" target="S2El4AXlV4LIr7-H3Zzx-60">
          <mxGeometry width="50" height="50" relative="1" as="geometry">
            <mxPoint x="303.71000000000004" y="-267.63" as="sourcePoint" />
            <mxPoint x="332.71000000000004" y="-407.63" as="targetPoint" />
            <Array as="points">
              <mxPoint x="370" y="-270" />
              <mxPoint x="370" y="-564" />
            </Array>
          </mxGeometry>
        </mxCell>
        <mxCell id="S2El4AXlV4LIr7-H3Zzx-72" value="[Not Approved by Bank]" style="text;html=1;strokeColor=none;fillColor=none;align=center;verticalAlign=middle;whiteSpace=wrap;rounded=0;rotation=-90;" vertex="1" parent="1">
          <mxGeometry x="306.14" y="-371.32" width="150" height="20" as="geometry" />
        </mxCell>
        <mxCell id="S2El4AXlV4LIr7-H3Zzx-73" value="[Approved]" style="text;html=1;strokeColor=none;fillColor=none;align=center;verticalAlign=middle;whiteSpace=wrap;rounded=0;rotation=-90;" vertex="1" parent="1">
          <mxGeometry x="252.43" y="-200" width="64.29" height="20" as="geometry" />
        </mxCell>
        <mxCell id="S2El4AXlV4LIr7-H3Zzx-74" value="" style="endArrow=open;html=1;rounded=0;labelBackgroundColor=default;strokeColor=#FF0000;align=center;verticalAlign=bottom;fontFamily=Helvetica;fontSize=11;fontColor=default;endSize=8;shape=connector;elbow=horizontal;endFill=1;entryX=0.5;entryY=0;entryDx=0;entryDy=0;" edge="1" parent="1" target="S2El4AXlV4LIr7-H3Zzx-68">
          <mxGeometry width="50" height="50" relative="1" as="geometry">
            <mxPoint x="271.51" y="-452.63000000000005" as="sourcePoint" />
            <mxPoint x="271.51" y="-412.63" as="targetPoint" />
          </mxGeometry>
        </mxCell>
        <mxCell id="AI0DfgR88YhLpMmkbT6Z-87" value="[Register]" style="text;html=1;strokeColor=none;fillColor=none;align=center;verticalAlign=middle;whiteSpace=wrap;rounded=0;rotation=0;" vertex="1" parent="1">
          <mxGeometry x="496.71" y="-659.9999999999999" width="58" height="20" as="geometry" />
        </mxCell>
        <mxCell id="AI0DfgR88YhLpMmkbT6Z-153" value="Enter Personal Information" style="rounded=1;whiteSpace=wrap;html=1;rotation=0;" vertex="1" parent="1">
          <mxGeometry x="521.1700000000001" y="-610.8199999999999" width="87.09" height="30" as="geometry" />
        </mxCell>
        <mxCell id="AI0DfgR88YhLpMmkbT6Z-155" value="Register" style="rounded=1;whiteSpace=wrap;html=1;rotation=0;" vertex="1" parent="1">
          <mxGeometry x="539.3800000000001" y="-544" width="49.59" height="19.87" as="geometry" />
        </mxCell>
        <mxCell id="S2El4AXlV4LIr7-H3Zzx-169" style="edgeStyle=none;shape=connector;rounded=0;orthogonalLoop=1;jettySize=auto;html=1;labelBackgroundColor=default;strokeColor=#FF0000;align=center;verticalAlign=bottom;fontFamily=Helvetica;fontSize=11;fontColor=default;endArrow=open;endFill=1;endSize=8;elbow=horizontal;" edge="1" parent="1" source="AI0DfgR88YhLpMmkbT6Z-156">
          <mxGeometry relative="1" as="geometry">
            <mxPoint x="410" y="-427" as="targetPoint" />
          </mxGeometry>
        </mxCell>
        <mxCell id="AI0DfgR88YhLpMmkbT6Z-156" value="" style="rhombus;whiteSpace=wrap;html=1;rotation=90;" vertex="1" parent="1">
          <mxGeometry x="544.72" y="-446.63" width="40" height="40" as="geometry" />
        </mxCell>
        <mxCell id="AI0DfgR88YhLpMmkbT6Z-193" value="[View Passenger List]" style="text;html=1;strokeColor=none;fillColor=none;align=center;verticalAlign=middle;whiteSpace=wrap;rounded=0;rotation=-90;" vertex="1" parent="1">
          <mxGeometry x="840" y="-423" width="110" height="20" as="geometry" />
        </mxCell>
        <mxCell id="AI0DfgR88YhLpMmkbT6Z-194" value="Claim Companion Ticket" style="rounded=1;whiteSpace=wrap;html=1;rotation=0;" vertex="1" parent="1">
          <mxGeometry x="607.71" y="-340.81" width="73" height="50" as="geometry" />
        </mxCell>
        <mxCell id="AI0DfgR88YhLpMmkbT6Z-195" value="Apply for Credit Card" style="rounded=1;whiteSpace=wrap;html=1;rotation=0;" vertex="1" parent="1">
          <mxGeometry x="523.8000000000001" y="-340.13" width="79" height="48.63" as="geometry" />
        </mxCell>
        <mxCell id="AI0DfgR88YhLpMmkbT6Z-196" value="Sign-up for Monthly Promotions" style="rounded=1;whiteSpace=wrap;html=1;rotation=0;" vertex="1" parent="1">
          <mxGeometry x="436.71" y="-340.81" width="79" height="51.44" as="geometry" />
        </mxCell>
        <mxCell id="AI0DfgR88YhLpMmkbT6Z-204" value="" style="endArrow=open;html=1;rounded=0;entryX=0.5;entryY=0;entryDx=0;entryDy=0;exitX=1;exitY=0;exitDx=0;exitDy=0;verticalAlign=bottom;strokeColor=#FF0000;endSize=8;endFill=1;" edge="1" parent="1" source="AI0DfgR88YhLpMmkbT6Z-156" target="AI0DfgR88YhLpMmkbT6Z-194">
          <mxGeometry width="50" height="50" relative="1" as="geometry">
            <mxPoint x="573.71" y="-413.76" as="sourcePoint" />
            <mxPoint x="623.71" y="-363.76" as="targetPoint" />
          </mxGeometry>
        </mxCell>
        <mxCell id="AI0DfgR88YhLpMmkbT6Z-205" value="" style="endArrow=open;html=1;rounded=0;entryX=0.5;entryY=0;entryDx=0;entryDy=0;exitX=1;exitY=0.5;exitDx=0;exitDy=0;verticalAlign=bottom;strokeColor=#FF0000;endSize=8;endFill=1;" edge="1" parent="1" source="AI0DfgR88YhLpMmkbT6Z-156" target="AI0DfgR88YhLpMmkbT6Z-195">
          <mxGeometry width="50" height="50" relative="1" as="geometry">
            <mxPoint x="563.71" y="-422.76" as="sourcePoint" />
            <mxPoint x="603.71" y="-233.76" as="targetPoint" />
          </mxGeometry>
        </mxCell>
        <mxCell id="AI0DfgR88YhLpMmkbT6Z-206" value="" style="endArrow=open;html=1;rounded=0;entryX=0.5;entryY=0;entryDx=0;entryDy=0;exitX=1;exitY=1;exitDx=0;exitDy=0;verticalAlign=bottom;strokeColor=#FF0000;endSize=8;endFill=1;" edge="1" parent="1" source="AI0DfgR88YhLpMmkbT6Z-156" target="AI0DfgR88YhLpMmkbT6Z-196">
          <mxGeometry width="50" height="50" relative="1" as="geometry">
            <mxPoint x="553.71" y="-412.76" as="sourcePoint" />
            <mxPoint x="553.71" y="-233.76" as="targetPoint" />
          </mxGeometry>
        </mxCell>
        <mxCell id="S2El4AXlV4LIr7-H3Zzx-168" style="edgeStyle=none;shape=connector;rounded=0;orthogonalLoop=1;jettySize=auto;html=1;labelBackgroundColor=default;strokeColor=#FF0000;align=center;verticalAlign=bottom;fontFamily=Helvetica;fontSize=11;fontColor=default;endArrow=open;endFill=1;endSize=8;elbow=horizontal;entryX=0.5;entryY=0;entryDx=0;entryDy=0;" edge="1" parent="1" source="AI0DfgR88YhLpMmkbT6Z-208" target="AI0DfgR88YhLpMmkbT6Z-76">
          <mxGeometry relative="1" as="geometry">
            <mxPoint x="564.71" y="129.99999999999977" as="targetPoint" />
          </mxGeometry>
        </mxCell>
        <mxCell id="AI0DfgR88YhLpMmkbT6Z-208" value="" style="rhombus;whiteSpace=wrap;html=1;rotation=90;" vertex="1" parent="1">
          <mxGeometry x="544.71" y="-193.76" width="40" height="40" as="geometry" />
        </mxCell>
        <mxCell id="AI0DfgR88YhLpMmkbT6Z-210" value="" style="endArrow=open;html=1;rounded=0;entryX=0;entryY=0;entryDx=0;entryDy=0;exitX=0.5;exitY=1;exitDx=0;exitDy=0;verticalAlign=bottom;strokeColor=#FF0000;endSize=8;endFill=1;" edge="1" parent="1" source="AI0DfgR88YhLpMmkbT6Z-194" target="AI0DfgR88YhLpMmkbT6Z-208">
          <mxGeometry width="50" height="50" relative="1" as="geometry">
            <mxPoint x="563.71" y="-422.76" as="sourcePoint" />
            <mxPoint x="603.71" y="-353.76" as="targetPoint" />
          </mxGeometry>
        </mxCell>
        <mxCell id="AI0DfgR88YhLpMmkbT6Z-211" value="" style="endArrow=open;html=1;rounded=0;exitX=0.5;exitY=1;exitDx=0;exitDy=0;verticalAlign=bottom;strokeColor=#FF0000;endSize=8;endFill=1;" edge="1" parent="1" source="AI0DfgR88YhLpMmkbT6Z-195">
          <mxGeometry width="50" height="50" relative="1" as="geometry">
            <mxPoint x="603.71" y="-243.76" as="sourcePoint" />
            <mxPoint x="563.71" y="-193.76" as="targetPoint" />
          </mxGeometry>
        </mxCell>
        <mxCell id="AI0DfgR88YhLpMmkbT6Z-212" value="" style="endArrow=open;html=1;rounded=0;exitX=0.5;exitY=1;exitDx=0;exitDy=0;verticalAlign=bottom;strokeColor=#FF0000;endSize=8;endFill=1;" edge="1" parent="1" source="AI0DfgR88YhLpMmkbT6Z-196">
          <mxGeometry width="50" height="50" relative="1" as="geometry">
            <mxPoint x="553.71" y="-243.76" as="sourcePoint" />
            <mxPoint x="553.71" y="-183.76" as="targetPoint" />
          </mxGeometry>
        </mxCell>
        <mxCell id="AI0DfgR88YhLpMmkbT6Z-222" value="[Flight Functionality]" style="text;html=1;strokeColor=none;fillColor=none;align=center;verticalAlign=middle;whiteSpace=wrap;rounded=0;rotation=0;" vertex="1" parent="1">
          <mxGeometry x="410" y="-170" width="116.71" height="20" as="geometry" />
        </mxCell>
        <mxCell id="S2El4AXlV4LIr7-H3Zzx-4" value="" style="endArrow=none;html=1;rounded=0;entryX=0.5;entryY=1;entryDx=0;entryDy=0;verticalAlign=bottom;strokeColor=#FF0000;endSize=8;endFill=0;startArrow=open;startFill=0;exitX=1;exitY=1;exitDx=0;exitDy=0;startSize=8;" edge="1" parent="1" source="AI0DfgR88YhLpMmkbT6Z-168" target="AI0DfgR88YhLpMmkbT6Z-208">
          <mxGeometry width="50" height="50" relative="1" as="geometry">
            <mxPoint x="457" y="-126" as="sourcePoint" />
            <mxPoint x="497" y="-36" as="targetPoint" />
            <Array as="points">
              <mxPoint x="300" y="-660" />
              <mxPoint x="410" y="-660" />
              <mxPoint x="410" y="-174" />
            </Array>
          </mxGeometry>
        </mxCell>
        <mxCell id="S2El4AXlV4LIr7-H3Zzx-79" value="" style="edgeStyle=elbowEdgeStyle;elbow=horizontal;verticalAlign=bottom;endArrow=open;endSize=8;strokeColor=#FF0000;endFill=1;rounded=0;exitX=0.5;exitY=1;exitDx=0;exitDy=0;" edge="1" parent="1">
          <mxGeometry x="40" y="20" as="geometry">
            <mxPoint x="564" y="-610" as="targetPoint" />
            <mxPoint x="564.0300000000001" y="-669.82" as="sourcePoint" />
            <Array as="points" />
          </mxGeometry>
        </mxCell>
        <mxCell id="S2El4AXlV4LIr7-H3Zzx-80" value="[Login]" style="text;html=1;strokeColor=none;fillColor=none;align=center;verticalAlign=middle;whiteSpace=wrap;rounded=0;rotation=0;" vertex="1" parent="1">
          <mxGeometry x="602.8" y="-715.74" width="50" height="20" as="geometry" />
        </mxCell>
        <mxCell id="S2El4AXlV4LIr7-H3Zzx-90" value="" style="edgeStyle=elbowEdgeStyle;elbow=horizontal;verticalAlign=bottom;endArrow=open;endSize=8;strokeColor=#FF0000;endFill=1;rounded=0;exitX=0.491;exitY=0.976;exitDx=0;exitDy=0;entryX=0.5;entryY=0;entryDx=0;entryDy=0;exitPerimeter=0;" edge="1" parent="1" source="AI0DfgR88YhLpMmkbT6Z-153" target="AI0DfgR88YhLpMmkbT6Z-155">
          <mxGeometry x="40" y="20" as="geometry">
            <mxPoint x="563.1800000000001" y="-497.82000000000005" as="targetPoint" />
            <mxPoint x="563.1800000000001" y="-580.82" as="sourcePoint" />
            <Array as="points" />
          </mxGeometry>
        </mxCell>
        <mxCell id="S2El4AXlV4LIr7-H3Zzx-91" value="" style="edgeStyle=elbowEdgeStyle;elbow=horizontal;verticalAlign=bottom;endArrow=open;endSize=8;strokeColor=#FF0000;endFill=1;rounded=0;exitX=0.5;exitY=1;exitDx=0;exitDy=0;entryX=0;entryY=0.5;entryDx=0;entryDy=0;" edge="1" parent="1" source="AI0DfgR88YhLpMmkbT6Z-155" target="AI0DfgR88YhLpMmkbT6Z-156">
          <mxGeometry x="40" y="20" as="geometry">
            <mxPoint x="574" y="-510" as="targetPoint" />
            <mxPoint x="574" y="-548" as="sourcePoint" />
            <Array as="points" />
          </mxGeometry>
        </mxCell>
        <mxCell id="S2El4AXlV4LIr7-H3Zzx-102" value="" style="edgeStyle=none;shape=connector;rounded=0;orthogonalLoop=1;jettySize=auto;html=1;labelBackgroundColor=default;strokeColor=#FF0000;align=center;verticalAlign=bottom;fontFamily=Helvetica;fontSize=11;fontColor=default;endArrow=open;endFill=1;endSize=8;elbow=horizontal;" edge="1" parent="1" source="S2El4AXlV4LIr7-H3Zzx-93" target="S2El4AXlV4LIr7-H3Zzx-95">
          <mxGeometry relative="1" as="geometry" />
        </mxCell>
        <mxCell id="S2El4AXlV4LIr7-H3Zzx-105" style="edgeStyle=none;shape=connector;rounded=0;orthogonalLoop=1;jettySize=auto;html=1;entryX=0.5;entryY=0;entryDx=0;entryDy=0;labelBackgroundColor=default;strokeColor=#FF0000;align=center;verticalAlign=bottom;fontFamily=Helvetica;fontSize=11;fontColor=default;endArrow=open;endFill=1;endSize=8;elbow=horizontal;" edge="1" parent="1" source="S2El4AXlV4LIr7-H3Zzx-93" target="S2El4AXlV4LIr7-H3Zzx-97">
          <mxGeometry relative="1" as="geometry">
            <Array as="points">
              <mxPoint x="780" y="-730" />
              <mxPoint x="1060" y="-730" />
            </Array>
          </mxGeometry>
        </mxCell>
        <mxCell id="S2El4AXlV4LIr7-H3Zzx-93" value="" style="rhombus;whiteSpace=wrap;html=1;" vertex="1" parent="1">
          <mxGeometry x="760.0000000000001" y="-710" width="40" height="40" as="geometry" />
        </mxCell>
        <mxCell id="S2El4AXlV4LIr7-H3Zzx-94" value="" style="edgeStyle=elbowEdgeStyle;elbow=horizontal;verticalAlign=bottom;endArrow=open;endSize=8;strokeColor=#FF0000;endFill=1;rounded=0;entryX=0;entryY=0.5;entryDx=0;entryDy=0;exitX=1;exitY=0.5;exitDx=0;exitDy=0;" edge="1" parent="1" source="AI0DfgR88YhLpMmkbT6Z-80" target="S2El4AXlV4LIr7-H3Zzx-93">
          <mxGeometry x="40" y="20" as="geometry">
            <mxPoint x="574" y="-600" as="targetPoint" />
            <mxPoint x="590" y="-690" as="sourcePoint" />
            <Array as="points" />
          </mxGeometry>
        </mxCell>
        <mxCell id="S2El4AXlV4LIr7-H3Zzx-100" style="edgeStyle=none;shape=connector;rounded=0;orthogonalLoop=1;jettySize=auto;html=1;entryX=0.5;entryY=0;entryDx=0;entryDy=0;labelBackgroundColor=default;strokeColor=#FF0000;align=center;verticalAlign=bottom;fontFamily=Helvetica;fontSize=11;fontColor=default;endArrow=open;endFill=1;endSize=8;elbow=horizontal;" edge="1" parent="1" source="S2El4AXlV4LIr7-H3Zzx-95" target="AI0DfgR88YhLpMmkbT6Z-156">
          <mxGeometry relative="1" as="geometry">
            <Array as="points">
              <mxPoint x="780" y="-427" />
            </Array>
          </mxGeometry>
        </mxCell>
        <mxCell id="S2El4AXlV4LIr7-H3Zzx-95" value="User Login" style="rounded=1;whiteSpace=wrap;html=1;rotation=0;" vertex="1" parent="1">
          <mxGeometry x="743.22" y="-610.82" width="73.55" height="30" as="geometry" />
        </mxCell>
        <mxCell id="S2El4AXlV4LIr7-H3Zzx-109" style="edgeStyle=none;shape=connector;rounded=0;orthogonalLoop=1;jettySize=auto;html=1;labelBackgroundColor=default;strokeColor=#FF0000;align=center;verticalAlign=bottom;fontFamily=Helvetica;fontSize=11;fontColor=default;endArrow=open;endFill=1;endSize=8;elbow=horizontal;entryX=0;entryY=0.5;entryDx=0;entryDy=0;" edge="1" parent="1" source="S2El4AXlV4LIr7-H3Zzx-96" target="S2El4AXlV4LIr7-H3Zzx-110">
          <mxGeometry relative="1" as="geometry">
            <mxPoint x="876.7749999999999" y="-500" as="targetPoint" />
          </mxGeometry>
        </mxCell>
        <mxCell id="S2El4AXlV4LIr7-H3Zzx-96" value="Airline Login" style="rounded=1;whiteSpace=wrap;html=1;rotation=0;" vertex="1" parent="1">
          <mxGeometry x="840" y="-610.82" width="73.55" height="30" as="geometry" />
        </mxCell>
        <mxCell id="S2El4AXlV4LIr7-H3Zzx-130" style="edgeStyle=none;shape=connector;rounded=0;orthogonalLoop=1;jettySize=auto;html=1;entryX=0;entryY=0.5;entryDx=0;entryDy=0;labelBackgroundColor=default;strokeColor=#FF0000;align=center;verticalAlign=bottom;fontFamily=Helvetica;fontSize=11;fontColor=default;endArrow=open;endFill=1;endSize=8;elbow=horizontal;" edge="1" parent="1" source="S2El4AXlV4LIr7-H3Zzx-97" target="S2El4AXlV4LIr7-H3Zzx-122">
          <mxGeometry relative="1" as="geometry" />
        </mxCell>
        <mxCell id="S2El4AXlV4LIr7-H3Zzx-97" value="Admin Login" style="rounded=1;whiteSpace=wrap;html=1;rotation=0;" vertex="1" parent="1">
          <mxGeometry x="1022" y="-610.82" width="73.55" height="30" as="geometry" />
        </mxCell>
        <mxCell id="S2El4AXlV4LIr7-H3Zzx-99" value="" style="edgeStyle=elbowEdgeStyle;elbow=horizontal;verticalAlign=bottom;endArrow=open;endSize=8;strokeColor=#FF0000;endFill=1;rounded=0;exitX=0.5;exitY=1;exitDx=0;exitDy=0;" edge="1" parent="1">
          <mxGeometry x="40" y="20" as="geometry">
            <mxPoint x="779.94" y="-610.82" as="targetPoint" />
            <mxPoint x="779.97" y="-670.6400000000001" as="sourcePoint" />
            <Array as="points" />
          </mxGeometry>
        </mxCell>
        <mxCell id="S2El4AXlV4LIr7-H3Zzx-101" value="[General User]" style="text;html=1;strokeColor=none;fillColor=none;align=center;verticalAlign=middle;whiteSpace=wrap;rounded=0;rotation=0;" vertex="1" parent="1">
          <mxGeometry x="710" y="-660" width="50" height="20" as="geometry" />
        </mxCell>
        <mxCell id="S2El4AXlV4LIr7-H3Zzx-103" value="" style="edgeStyle=elbowEdgeStyle;elbow=horizontal;verticalAlign=bottom;endArrow=open;endSize=8;strokeColor=#FF0000;endFill=1;rounded=0;exitX=1;exitY=0.5;exitDx=0;exitDy=0;entryX=0.5;entryY=0;entryDx=0;entryDy=0;" edge="1" parent="1" source="S2El4AXlV4LIr7-H3Zzx-93" target="S2El4AXlV4LIr7-H3Zzx-96">
          <mxGeometry x="40" y="20" as="geometry">
            <mxPoint x="789.94" y="-600.82" as="targetPoint" />
            <mxPoint x="789.97" y="-660.6400000000001" as="sourcePoint" />
            <Array as="points">
              <mxPoint x="877" y="-660" />
            </Array>
          </mxGeometry>
        </mxCell>
        <mxCell id="S2El4AXlV4LIr7-H3Zzx-106" value="[Admin user]" style="text;html=1;strokeColor=none;fillColor=none;align=center;verticalAlign=middle;whiteSpace=wrap;rounded=0;rotation=0;" vertex="1" parent="1">
          <mxGeometry x="880" y="-750" width="70" height="20" as="geometry" />
        </mxCell>
        <mxCell id="S2El4AXlV4LIr7-H3Zzx-108" value="[Airline user]" style="text;html=1;strokeColor=none;fillColor=none;align=center;verticalAlign=middle;whiteSpace=wrap;rounded=0;rotation=0;" vertex="1" parent="1">
          <mxGeometry x="810" y="-710" width="80" height="20" as="geometry" />
        </mxCell>
        <mxCell id="S2El4AXlV4LIr7-H3Zzx-112" style="edgeStyle=none;shape=connector;rounded=0;orthogonalLoop=1;jettySize=auto;html=1;labelBackgroundColor=default;strokeColor=#FF0000;align=center;verticalAlign=bottom;fontFamily=Helvetica;fontSize=11;fontColor=default;endArrow=open;endFill=1;endSize=8;elbow=horizontal;entryX=0.5;entryY=0;entryDx=0;entryDy=0;" edge="1" parent="1" source="S2El4AXlV4LIr7-H3Zzx-110" target="S2El4AXlV4LIr7-H3Zzx-120">
          <mxGeometry relative="1" as="geometry">
            <mxPoint x="876.77" y="-390" as="targetPoint" />
          </mxGeometry>
        </mxCell>
        <mxCell id="S2El4AXlV4LIr7-H3Zzx-170" style="edgeStyle=none;shape=connector;rounded=0;orthogonalLoop=1;jettySize=auto;html=1;labelBackgroundColor=default;strokeColor=#FF0000;align=center;verticalAlign=bottom;fontFamily=Helvetica;fontSize=11;fontColor=default;endArrow=open;endFill=1;endSize=8;elbow=horizontal;jumpStyle=arc;jumpSize=12;" edge="1" parent="1" source="S2El4AXlV4LIr7-H3Zzx-110">
          <mxGeometry relative="1" as="geometry">
            <mxPoint x="410" y="-482.63" as="targetPoint" />
          </mxGeometry>
        </mxCell>
        <mxCell id="S2El4AXlV4LIr7-H3Zzx-110" value="" style="rhombus;whiteSpace=wrap;html=1;rotation=90;" vertex="1" parent="1">
          <mxGeometry x="856.77" y="-502.63" width="40" height="40" as="geometry" />
        </mxCell>
        <mxCell id="S2El4AXlV4LIr7-H3Zzx-115" value="Browse Passenger List" style="rounded=1;whiteSpace=wrap;html=1;rotation=0;" vertex="1" parent="1">
          <mxGeometry x="840" y="-272.63" width="73.55" height="57.63" as="geometry" />
        </mxCell>
        <mxCell id="S2El4AXlV4LIr7-H3Zzx-116" style="edgeStyle=none;shape=connector;rounded=0;orthogonalLoop=1;jettySize=auto;html=1;labelBackgroundColor=default;strokeColor=#FF0000;align=center;verticalAlign=bottom;fontFamily=Helvetica;fontSize=11;fontColor=default;endArrow=open;endFill=1;endSize=8;elbow=horizontal;exitX=0.5;exitY=1;exitDx=0;exitDy=0;entryX=0.891;entryY=0.193;entryDx=0;entryDy=0;entryPerimeter=0;" edge="1" parent="1" source="S2El4AXlV4LIr7-H3Zzx-115" target="AI0DfgR88YhLpMmkbT6Z-76">
          <mxGeometry relative="1" as="geometry">
            <mxPoint x="440" y="180" as="targetPoint" />
            <mxPoint x="876.5" y="-323" as="sourcePoint" />
            <Array as="points">
              <mxPoint x="877" y="160" />
              <mxPoint x="600" y="160" />
            </Array>
          </mxGeometry>
        </mxCell>
        <mxCell id="S2El4AXlV4LIr7-H3Zzx-119" value="[Flight Functionality]" style="text;html=1;strokeColor=none;fillColor=none;align=center;verticalAlign=middle;whiteSpace=wrap;rounded=0;rotation=0;" vertex="1" parent="1">
          <mxGeometry x="610.95" y="-505.25999999999993" width="132.27" height="20" as="geometry" />
        </mxCell>
        <mxCell id="S2El4AXlV4LIr7-H3Zzx-120" value="Search Flight" style="rounded=1;whiteSpace=wrap;html=1;rotation=0;" vertex="1" parent="1">
          <mxGeometry x="840" y="-351.32" width="73.55" height="28.82" as="geometry" />
        </mxCell>
        <mxCell id="S2El4AXlV4LIr7-H3Zzx-121" style="edgeStyle=none;shape=connector;rounded=0;orthogonalLoop=1;jettySize=auto;html=1;labelBackgroundColor=default;strokeColor=#FF0000;align=center;verticalAlign=bottom;fontFamily=Helvetica;fontSize=11;fontColor=default;endArrow=open;endFill=1;endSize=8;elbow=horizontal;entryX=0.5;entryY=0;entryDx=0;entryDy=0;exitX=0.5;exitY=1;exitDx=0;exitDy=0;" edge="1" parent="1" source="S2El4AXlV4LIr7-H3Zzx-120" target="S2El4AXlV4LIr7-H3Zzx-115">
          <mxGeometry relative="1" as="geometry">
            <mxPoint x="877" y="-268.69" as="targetPoint" />
            <mxPoint x="876.54" y="-323.69" as="sourcePoint" />
          </mxGeometry>
        </mxCell>
        <mxCell id="S2El4AXlV4LIr7-H3Zzx-129" style="edgeStyle=none;shape=connector;rounded=0;orthogonalLoop=1;jettySize=auto;html=1;entryX=0;entryY=0.5;entryDx=0;entryDy=0;labelBackgroundColor=default;strokeColor=#FF0000;align=center;verticalAlign=bottom;fontFamily=Helvetica;fontSize=11;fontColor=default;endArrow=open;endFill=1;endSize=8;elbow=horizontal;" edge="1" parent="1" source="S2El4AXlV4LIr7-H3Zzx-122" target="S2El4AXlV4LIr7-H3Zzx-127">
          <mxGeometry relative="1" as="geometry" />
        </mxCell>
        <mxCell id="S2El4AXlV4LIr7-H3Zzx-136" style="edgeStyle=none;shape=connector;rounded=0;orthogonalLoop=1;jettySize=auto;html=1;labelBackgroundColor=default;strokeColor=#FF0000;align=center;verticalAlign=bottom;fontFamily=Helvetica;fontSize=11;fontColor=default;endArrow=open;endFill=1;endSize=8;elbow=horizontal;entryX=0.541;entryY=0.024;entryDx=0;entryDy=0;entryPerimeter=0;" edge="1" parent="1" source="S2El4AXlV4LIr7-H3Zzx-122" target="S2El4AXlV4LIr7-H3Zzx-137">
          <mxGeometry relative="1" as="geometry">
            <mxPoint x="962" y="-480" as="targetPoint" />
            <Array as="points">
              <mxPoint x="974" y="-520" />
            </Array>
          </mxGeometry>
        </mxCell>
        <mxCell id="S2El4AXlV4LIr7-H3Zzx-122" value="" style="rhombus;whiteSpace=wrap;html=1;rotation=90;" vertex="1" parent="1">
          <mxGeometry x="1038.78" y="-540.19" width="40" height="40" as="geometry" />
        </mxCell>
        <mxCell id="S2El4AXlV4LIr7-H3Zzx-174" style="edgeStyle=none;shape=connector;rounded=0;orthogonalLoop=1;jettySize=auto;html=1;entryX=1;entryY=0.5;entryDx=0;entryDy=0;labelBackgroundColor=default;strokeColor=#FF0000;align=center;verticalAlign=bottom;fontFamily=Helvetica;fontSize=11;fontColor=default;endArrow=open;endFill=1;endSize=8;elbow=horizontal;" edge="1" parent="1" source="S2El4AXlV4LIr7-H3Zzx-123" target="AI0DfgR88YhLpMmkbT6Z-76">
          <mxGeometry relative="1" as="geometry">
            <Array as="points">
              <mxPoint x="1060" y="195" />
            </Array>
          </mxGeometry>
        </mxCell>
        <mxCell id="S2El4AXlV4LIr7-H3Zzx-123" value="Manage Aircrafts, Crews or Flight Desinations" style="rounded=1;whiteSpace=wrap;html=1;rotation=0;" vertex="1" parent="1">
          <mxGeometry x="1021.23" y="-322.5" width="78.6" height="70" as="geometry" />
        </mxCell>
        <mxCell id="S2El4AXlV4LIr7-H3Zzx-167" style="edgeStyle=none;shape=connector;rounded=0;orthogonalLoop=1;jettySize=auto;html=1;labelBackgroundColor=default;strokeColor=#FF0000;align=center;verticalAlign=bottom;fontFamily=Helvetica;fontSize=11;fontColor=default;endArrow=open;endFill=1;endSize=8;elbow=horizontal;" edge="1" parent="1">
          <mxGeometry relative="1" as="geometry">
            <mxPoint x="1060" y="194" as="targetPoint" />
            <mxPoint x="1137" y="-504.08000000000004" as="sourcePoint" />
            <Array as="points">
              <mxPoint x="1137" y="195" />
            </Array>
          </mxGeometry>
        </mxCell>
        <mxCell id="S2El4AXlV4LIr7-H3Zzx-127" value="Print Member List" style="rounded=1;whiteSpace=wrap;html=1;rotation=0;" vertex="1" parent="1">
          <mxGeometry x="1112" y="-542.3" width="50" height="44.22" as="geometry" />
        </mxCell>
        <mxCell id="S2El4AXlV4LIr7-H3Zzx-135" value="" style="edgeStyle=none;shape=connector;rounded=0;orthogonalLoop=1;jettySize=auto;html=1;entryX=0.5;entryY=0;entryDx=0;entryDy=0;labelBackgroundColor=default;strokeColor=#FF0000;align=center;verticalAlign=bottom;fontFamily=Helvetica;fontSize=11;fontColor=default;endArrow=open;endFill=1;endSize=8;elbow=horizontal;" edge="1" parent="1" source="S2El4AXlV4LIr7-H3Zzx-122" target="S2El4AXlV4LIr7-H3Zzx-123">
          <mxGeometry relative="1" as="geometry">
            <mxPoint x="1058" y="-500" as="sourcePoint" />
            <mxPoint x="1058.7800000000002" y="-198.6500000000001" as="targetPoint" />
          </mxGeometry>
        </mxCell>
        <mxCell id="S2El4AXlV4LIr7-H3Zzx-140" style="edgeStyle=none;shape=connector;rounded=0;orthogonalLoop=1;jettySize=auto;html=1;entryX=0;entryY=0.5;entryDx=0;entryDy=0;labelBackgroundColor=default;strokeColor=#FF0000;align=center;verticalAlign=bottom;fontFamily=Helvetica;fontSize=11;fontColor=default;endArrow=open;endFill=1;endSize=8;elbow=horizontal;" edge="1" parent="1" source="S2El4AXlV4LIr7-H3Zzx-137" target="S2El4AXlV4LIr7-H3Zzx-138">
          <mxGeometry relative="1" as="geometry" />
        </mxCell>
        <mxCell id="S2El4AXlV4LIr7-H3Zzx-137" value="Browse/Search Flight" style="rounded=1;whiteSpace=wrap;html=1;rotation=0;" vertex="1" parent="1">
          <mxGeometry x="925.55" y="-485.26" width="90" height="47.63" as="geometry" />
        </mxCell>
        <mxCell id="S2El4AXlV4LIr7-H3Zzx-141" style="edgeStyle=none;shape=connector;rounded=0;orthogonalLoop=1;jettySize=auto;html=1;entryX=0.5;entryY=0;entryDx=0;entryDy=0;labelBackgroundColor=default;strokeColor=#FF0000;align=center;verticalAlign=bottom;fontFamily=Helvetica;fontSize=11;fontColor=default;endArrow=open;endFill=1;endSize=8;elbow=horizontal;" edge="1" parent="1" source="S2El4AXlV4LIr7-H3Zzx-138" target="S2El4AXlV4LIr7-H3Zzx-139">
          <mxGeometry relative="1" as="geometry" />
        </mxCell>
        <mxCell id="S2El4AXlV4LIr7-H3Zzx-142" style="edgeStyle=none;shape=connector;rounded=0;orthogonalLoop=1;jettySize=auto;html=1;labelBackgroundColor=default;strokeColor=#FF0000;align=center;verticalAlign=bottom;fontFamily=Helvetica;fontSize=11;fontColor=default;endArrow=open;endFill=1;endSize=8;elbow=horizontal;entryX=1;entryY=1;entryDx=0;entryDy=0;" edge="1" parent="1" source="S2El4AXlV4LIr7-H3Zzx-138" target="S2El4AXlV4LIr7-H3Zzx-122">
          <mxGeometry relative="1" as="geometry">
            <mxPoint x="1040" y="-490" as="targetPoint" />
            <Array as="points">
              <mxPoint x="1040" y="-380" />
              <mxPoint x="1040" y="-490" />
            </Array>
          </mxGeometry>
        </mxCell>
        <mxCell id="S2El4AXlV4LIr7-H3Zzx-138" value="" style="rhombus;whiteSpace=wrap;html=1;rotation=90;" vertex="1" parent="1">
          <mxGeometry x="950.5500000000002" y="-399.63000000000005" width="40" height="40" as="geometry" />
        </mxCell>
        <mxCell id="S2El4AXlV4LIr7-H3Zzx-162" style="edgeStyle=none;shape=connector;rounded=0;orthogonalLoop=1;jettySize=auto;html=1;labelBackgroundColor=default;strokeColor=#FF0000;align=center;verticalAlign=bottom;fontFamily=Helvetica;fontSize=11;fontColor=default;endArrow=open;endFill=1;endSize=8;elbow=horizontal;exitX=0.5;exitY=1;exitDx=0;exitDy=0;" edge="1" parent="1" source="S2El4AXlV4LIr7-H3Zzx-139">
          <mxGeometry relative="1" as="geometry">
            <mxPoint x="972.43" y="195" as="targetPoint" />
            <mxPoint x="971.9996703296703" y="-245" as="sourcePoint" />
          </mxGeometry>
        </mxCell>
        <mxCell id="S2El4AXlV4LIr7-H3Zzx-139" value="Modify Flight Information" style="rounded=1;whiteSpace=wrap;html=1;rotation=0;" vertex="1" parent="1">
          <mxGeometry x="932.3299999999999" y="-310" width="76.45" height="30" as="geometry" />
        </mxCell>
        <mxCell id="S2El4AXlV4LIr7-H3Zzx-151" value="[Browse Flights]" style="text;html=1;strokeColor=none;fillColor=none;align=center;verticalAlign=middle;whiteSpace=wrap;rounded=0;rotation=0;" vertex="1" parent="1">
          <mxGeometry x="932.3299999999999" y="-544.13" width="96.45" height="20" as="geometry" />
        </mxCell>
        <mxCell id="S2El4AXlV4LIr7-H3Zzx-152" value="[Add or Remove]" style="text;html=1;strokeColor=none;fillColor=none;align=center;verticalAlign=middle;whiteSpace=wrap;rounded=0;rotation=-90;" vertex="1" parent="1">
          <mxGeometry x="1022" y="-426.63" width="98" height="20" as="geometry" />
        </mxCell>
        <mxCell id="S2El4AXlV4LIr7-H3Zzx-154" value="[No changes]" style="text;html=1;strokeColor=none;fillColor=none;align=center;verticalAlign=middle;whiteSpace=wrap;rounded=0;rotation=-90;" vertex="1" parent="1">
          <mxGeometry x="990.55" y="-443" width="80" height="20" as="geometry" />
        </mxCell>
        <mxCell id="S2El4AXlV4LIr7-H3Zzx-155" value="[Change]" style="text;html=1;strokeColor=none;fillColor=none;align=center;verticalAlign=middle;whiteSpace=wrap;rounded=0;rotation=0;" vertex="1" parent="1">
          <mxGeometry x="972" y="-351.32" width="50" height="20" as="geometry" />
        </mxCell>
        <mxCell id="S2El4AXlV4LIr7-H3Zzx-175" style="edgeStyle=none;shape=connector;rounded=0;orthogonalLoop=1;jettySize=auto;html=1;exitX=0.5;exitY=0;exitDx=0;exitDy=0;labelBackgroundColor=default;strokeColor=#FF0000;align=center;verticalAlign=bottom;fontFamily=Helvetica;fontSize=11;fontColor=default;endArrow=open;endFill=1;endSize=8;elbow=horizontal;" edge="1" parent="1" source="S2El4AXlV4LIr7-H3Zzx-119" target="S2El4AXlV4LIr7-H3Zzx-119">
          <mxGeometry relative="1" as="geometry" />
        </mxCell>
        <mxCell id="S2El4AXlV4LIr7-H3Zzx-176" value="[Flight Functionality]" style="text;html=1;strokeColor=none;fillColor=none;align=center;verticalAlign=middle;whiteSpace=wrap;rounded=0;rotation=0;" vertex="1" parent="1">
          <mxGeometry x="422.67" y="-446.63" width="116.71" height="20" as="geometry" />
        </mxCell>
        <mxCell id="S2El4AXlV4LIr7-H3Zzx-179" value="[Done]" style="text;html=1;strokeColor=none;fillColor=none;align=center;verticalAlign=middle;whiteSpace=wrap;rounded=0;rotation=-90;" vertex="1" parent="1">
          <mxGeometry x="554.7099999999999" y="-100" width="40.83" height="20" as="geometry" />
        </mxCell>
        <mxCell id="S2El4AXlV4LIr7-H3Zzx-181" value="[Choose Member Benefits]" style="text;html=1;strokeColor=none;fillColor=none;align=center;verticalAlign=middle;whiteSpace=wrap;rounded=0;rotation=45;" vertex="1" parent="1">
          <mxGeometry x="579.17" y="-392.63" width="102.21" height="20" as="geometry" />
        </mxCell>
        <mxCell id="S2El4AXlV4LIr7-H3Zzx-183" value="&lt;b&gt;For Clarity purposes:&lt;/b&gt; &lt;br&gt;- Not showing every validation case ex) System confirming inputs at each activity.&lt;br&gt;&lt;div style=&quot;&quot;&gt;&lt;span style=&quot;background-color: initial;&quot;&gt;- Not showing looping decisions for making multiple changes when possible ex) claiming multiple member benefits, or airline agents making multiple modifications.&lt;/span&gt;&lt;/div&gt;&lt;div style=&quot;&quot;&gt;&lt;span style=&quot;background-color: initial;&quot;&gt;- It is assumed the user can exit the program at each point, so it was not shown at each decision; only at the end of important scenarios/flows.&lt;/span&gt;&lt;/div&gt;" style="text;html=1;strokeColor=none;fillColor=none;align=left;verticalAlign=middle;whiteSpace=wrap;rounded=0;fontSize=11;fontFamily=Helvetica;fontColor=default;" vertex="1" parent="1">
          <mxGeometry x="1.5" y="-820" width="466.41" height="80" as="geometry" />
        </mxCell>
      </root>
    </mxGraphModel>
  </diagram>
</mxfile>
